<svg width="1344" height="224" viewBox="0 0 1344 224" fill="none" xmlns="http://www.w3.org/2000/svg">
<path d="M0.136719 18.76V-3.33786e-06H224.137V18.76H121.657V224H102.617V18.76H0.136719ZM504.137 60.76C504.137 71.4 501.523 81.2933 496.297 90.44C491.257 99.4 484.443 106.587 475.857 112C484.443 117.413 491.257 124.693 496.297 133.84C501.523 142.8 504.137 152.6 504.137 163.24V224H485.377V163.24C485.377 151.667 481.27 141.867 473.057 133.84C464.843 125.627 454.95 121.52 443.377 121.52H298.897V224H280.137V-3.33786e-06H443.377C460.177 -3.33786e-06 474.457 5.97333 486.217 17.92C498.163 29.68 504.137 43.96 504.137 60.76ZM298.897 18.76V102.48H443.377C454.95 102.48 464.843 98.4667 473.057 90.44C481.27 82.2267 485.377 72.3333 485.377 60.76C485.377 49.1867 481.27 39.2933 473.057 31.08C464.843 22.8667 454.95 18.76 443.377 18.76H298.897ZM560.137 224L686.137 -3.33786e-06L811.857 224H788.897L686.137 40.6L583.097 224H560.137ZM979.754 -3.33786e-06C1010.74 -3.33786e-06 1037.15 10.92 1058.99 32.76C1080.83 54.6 1091.75 81.0133 1091.75 112C1091.75 142.987 1080.83 169.4 1058.99 191.24C1037.15 213.08 1010.74 224 979.754 224H867.754V102.48H886.514V205.24H979.754C996.554 205.24 1012.14 201.133 1026.51 192.92C1040.89 184.52 1052.18 173.133 1060.39 158.76C1068.79 144.387 1072.99 128.8 1072.99 112C1072.99 95.2 1068.79 79.6133 1060.39 65.24C1052.18 50.8667 1040.89 39.5733 1026.51 31.36C1012.14 22.96 996.554 18.76 979.754 18.76H867.754V-3.33786e-06H979.754ZM1317.26 -3.33786e-06H1343.86L1245.02 112L1343.86 224H1317.26L1231.86 127.12L1146.46 224H1119.86L1218.7 112L1119.86 -3.33786e-06H1146.46L1231.86 96.88L1317.26 -3.33786e-06Z" fill="current"/>
</svg>
